<svg width="396" height="444" viewBox="0 0 396 444" fill="none" xmlns="http://www.w3.org/2000/svg">
<rect width="396" height="440" rx="36" fill="#060606"/>
<path d="M217.888 105.875C217.959 105.955 218.061 106 218.168 106H221.7L245.376 106.557C257.63 106.845 269.503 110.881 279.396 118.119L283.774 121.322C284.067 121.536 283.915 122 283.553 122H157.924C157.786 122 157.659 122.076 157.594 122.197L140.498 153.947C140.363 154.197 140.544 154.5 140.828 154.5H158.325C158.532 154.5 158.7 154.668 158.7 154.875V176.125C158.7 176.332 158.532 176.5 158.325 176.5H156.432C156.29 176.5 156.16 176.58 156.097 176.707L139.972 208.957C139.847 209.207 140.028 209.5 140.307 209.5H158.325C158.532 209.5 158.7 209.668 158.7 209.875V225.625C158.7 225.832 158.868 226 159.075 226H221.358C221.683 226 221.853 226.384 221.631 226.621C213.063 235.797 201.098 241.071 188.521 241.188L155.566 241.497C155.363 241.498 155.198 241.663 155.195 241.866L154.702 275.841C154.701 275.943 154.741 276.04 154.812 276.112L158.591 279.891C158.661 279.961 158.7 280.055 158.701 280.154L159.07 350.667C159.143 364.487 169.893 375.869 183.643 376.769C183.842 376.782 184 376.946 184 377.146V380.625C184 380.832 183.832 381 183.625 381H90.375C90.1679 381 90 380.832 90 380.625V376.86C90 376.659 90.16 376.494 90.3608 376.483C103.753 375.742 114.311 364.733 114.449 351.28L115.5 249V136C115.5 122.042 104.286 110.704 90.3765 110.503C90.1695 110.5 90 110.332 90 110.125V106.375C90 106.168 90.1679 106 90.375 106H198.672C199.024 106 199.182 105.558 198.909 105.335L155.437 69.7888C155.37 69.734 155.286 69.7041 155.199 69.7041H124.375C124.168 69.7041 124 69.5362 124 69.3291V36.375C124 36.1679 124.168 36 124.375 36H155.165C155.272 36 155.374 36.0454 155.445 36.1249L217.888 105.875ZM305.384 127.996C305.665 127.998 305.844 128.296 305.714 128.545L295.604 147.802C295.54 147.924 295.414 148.001 295.276 148.002L250.415 148.49C250.079 148.494 249.916 148.904 250.153 149.141C258.778 157.763 264.015 169.214 264.886 181.399L264.975 182.656C264.989 182.85 265.15 183.002 265.345 183.004L305.387 183.493C305.668 183.496 305.845 183.794 305.715 184.042L296.105 202.3C296.041 202.423 295.913 202.5 295.774 202.5H266.322C266.137 202.5 265.979 202.635 265.951 202.818L265.597 205.146C261.06 234.921 237.985 258.456 208.306 263.58L189.142 266.889C188.857 266.938 188.732 267.278 188.918 267.499L282.985 379.884C283.189 380.128 283.015 380.5 282.697 380.5H252.175C252.064 380.5 251.959 380.451 251.888 380.366L162.587 273.604C162.531 273.537 162.5 273.452 162.5 273.364V247.375C162.5 247.168 162.668 247 162.875 247H194.5C218.951 247 238.796 227.28 238.998 202.877C239 202.67 238.832 202.5 238.625 202.5H152.6C152.323 202.5 152.142 202.21 152.263 201.961L161.897 182.211C161.96 182.082 162.091 182 162.234 182H237.004C237.253 182 237.432 181.761 237.362 181.522C231.567 161.876 213.703 148.217 193.186 147.812L152.593 147.012C152.318 147.006 152.142 146.716 152.265 146.469L161.896 127.209C161.959 127.081 162.091 127.001 162.234 127.002L305.384 127.996Z" fill="#D477A5" fill-opacity="1"/>
</svg>
